<svg width="300" height="200" viewBox="0 0 300 200" xmlns="http://www.w3.org/2000/svg">
  <defs>
    <!-- Gold gradient for the LC symbol -->
    <linearGradient id="goldGradient" x1="0%" y1="0%" x2="100%" y2="100%">
      <stop offset="0%" style="stop-color:#fbbf24;stop-opacity:1" />
      <stop offset="50%" style="stop-color:#f59e0b;stop-opacity:1" />
      <stop offset="100%" style="stop-color:#d97706;stop-opacity:1" />
    </linearGradient>
    
    <!-- Shadow filter -->
    <filter id="shadow" x="-50%" y="-50%" width="200%" height="200%">
      <feDropShadow dx="2" dy="4" stdDeviation="3" flood-color="rgba(0,0,0,0.3)"/>
    </filter>
  </defs>
  
  <!-- L with integrated scale -->
  <g transform="translate(50, 50)">
    <!-- Letter L base -->
    <path d="M 20 20 L 20 120 L 80 120 L 80 100 L 45 100 L 45 20 Z" 
          fill="url(#goldGradient)" 
          filter="url(#shadow)"/>
    
    <!-- Scale pole (vertical part of L extended) -->
    <rect x="32" y="20" width="6" height="40" 
          fill="url(#goldGradient)" 
          filter="url(#shadow)"/>
    
    <!-- Scale crossbar -->
    <rect x="15" y="35" width="46" height="4" 
          fill="url(#goldGradient)" 
          filter="url(#shadow)"/>
    
    <!-- Left scale pan -->
    <ellipse cx="20" cy="45" rx="12" ry="4" 
             fill="url(#goldGradient)" 
             filter="url(#shadow)"/>
    
    <!-- Right scale pan -->
    <ellipse cx="56" cy="45" rx="12" ry="4" 
             fill="url(#goldGradient)" 
             filter="url(#shadow)"/>
    
    <!-- Scale chains -->
    <line x1="20" y1="39" x2="20" y2="41" 
          stroke="url(#goldGradient)" 
          stroke-width="1"/>
    <line x1="56" y1="39" x2="56" y2="41" 
          stroke="url(#goldGradient)" 
          stroke-width="1"/>
    
    <!-- Decorative top ornament -->
    <circle cx="35" cy="18" r="3" 
            fill="url(#goldGradient)" 
            filter="url(#shadow)"/>
  </g>
  
  <!-- Letter C -->
  <g transform="translate(150, 50)">
    <path d="M 80 40 
             C 60 20, 20 20, 20 60
             C 20 100, 60 120, 80 100
             L 75 85
             C 65 95, 40 95, 40 60
             C 40 35, 65 25, 75 35
             Z" 
          fill="url(#goldGradient)" 
          filter="url(#shadow)"/>
  </g>
</svg>