<svg width="120" height="80" viewBox="0 0 120 80" xmlns="http://www.w3.org/2000/svg">
  <defs>
    <linearGradient id="goldGradient" x1="0%" y1="0%" x2="100%" y2="100%">
      <stop offset="0%" style="stop-color:#fbbf24;stop-opacity:1" />
      <stop offset="50%" style="stop-color:#f59e0b;stop-opacity:1" />
      <stop offset="100%" style="stop-color:#d97706;stop-opacity:1" />
    </linearGradient>
  </defs>
  
  <!-- Letter L with integrated scale -->
  <g fill="url(#goldGradient)">
    <!-- Main L body -->
    <path d="M15 10 L15 55 L45 55 L45 50 L22 50 L22 10 Z" />
    
    <!-- Scale beam extending from L -->
    <rect x="22" y="18" width="60" height="2" />
    
    <!-- Left scale cup -->
    <ellipse cx="30" cy="25" rx="8" ry="3" />
    <path d="M22 22 Q30 20 38 22" stroke="url(#goldGradient)" stroke-width="1" fill="none" />
    
    <!-- Right scale cup -->
    <ellipse cx="74" cy="25" rx="8" ry="3" />
    <path d="M66 22 Q74 20 82 22" stroke="url(#goldGradient)" stroke-width="1" fill="none" />
    
    <!-- Scale chains -->
    <line x1="30" y1="20" x2="30" y2="22" stroke="url(#goldGradient)" stroke-width="1" />
    <line x1="74" y1="20" x2="74" y2="22" stroke="url(#goldGradient)" stroke-width="1" />
    
    <!-- Letter C -->
    <path d="M85 25 Q85 15 95 15 Q105 15 105 25 L102 25 Q102 18 95 18 Q88 18 88 25 L88 45 Q88 52 95 52 Q102 52 102 45 L105 45 Q105 55 95 55 Q85 55 85 45 Z" />
  </g>
</svg>